<svg width="453" height="350" xmlns="http://www.w3.org/2000/svg">

 <g>
  <title>background</title>
  <rect fill="none" id="canvas_background" height="352" width="455" y="-1" x="-1"/>
 </g>
 <g>
  <title>Layer 1</title>
  <path id="svg_1" fill="#455A64" d="m303.834,231.856c-1.365,-1.513 1.853,-10.348 17.125,-10.973c15.271,-0.626 21.389,4.935 21.411,10.973c0.012,2.672 -38.536,0 -38.536,0z"/>
  <path id="svg_2" fill="#F5F5F5" d="m296.295,0.7055l-16.966,104.9205l154.942,0l18.671,-106.0462l-156.647,1.1257z"/>
  <path id="svg_3" fill="#E0E0E0" d="m294.748,10.2458c0.069,-0.3639 156.42,-0.5913 156.42,-0.5913l1.774,-10.0747l-156.647,1.1371l-1.547,9.5516"/>
  <path id="svg_4" fill="#263238" d="m302.845,5.4245c0.002,0.2861 -0.081,0.5664 -0.238,0.8053c-0.157,0.239 -0.382,0.4259 -0.646,0.5369c-0.264,0.1111 -0.554,0.1413 -0.835,0.0869c-0.281,-0.0545 -0.539,-0.1911 -0.743,-0.3926c-0.203,-0.2015 -0.341,-0.4588 -0.398,-0.7392c-0.057,-0.2805 -0.029,-0.5714 0.08,-0.8359c0.109,-0.2646 0.294,-0.4908 0.532,-0.65c0.238,-0.1592 0.517,-0.2442 0.804,-0.2442c0.189,-0.0015 0.376,0.0345 0.551,0.1058c0.175,0.0713 0.335,0.1766 0.469,0.3098c0.134,0.1332 0.241,0.2917 0.313,0.4662c0.073,0.1746 0.111,0.3618 0.111,0.551z"/>
  <path id="svg_5" fill="#263238" d="m309.895,5.4245c0,0.2833 -0.084,0.5604 -0.242,0.796c-0.157,0.2356 -0.381,0.4192 -0.643,0.5277c-0.262,0.1084 -0.55,0.1368 -0.828,0.0815c-0.278,-0.0553 -0.533,-0.1917 -0.733,-0.3921c-0.201,-0.2004 -0.337,-0.4557 -0.392,-0.7336c-0.056,-0.2779 -0.027,-0.566 0.081,-0.8278c0.109,-0.2618 0.292,-0.4856 0.528,-0.643c0.236,-0.1574 0.513,-0.2415 0.796,-0.2415c0.38,0 0.744,0.151 1.013,0.4197c0.269,0.2687 0.42,0.6331 0.42,1.0131z"/>
  <path id="svg_6" fill="#263238" d="m316.956,5.4245c0.002,0.2861 -0.08,0.5664 -0.238,0.8053c-0.157,0.239 -0.382,0.4259 -0.645,0.5369c-0.264,0.1111 -0.555,0.1413 -0.836,0.0869c-0.281,-0.0545 -0.539,-0.1911 -0.742,-0.3926c-0.203,-0.2015 -0.342,-0.4588 -0.399,-0.7392c-0.056,-0.2805 -0.028,-0.5714 0.081,-0.8359c0.109,-0.2646 0.294,-0.4908 0.531,-0.65c0.238,-0.1592 0.518,-0.2442 0.804,-0.2442c0.189,-0.0015 0.377,0.0345 0.552,0.1058c0.175,0.0713 0.334,0.1766 0.468,0.3098c0.135,0.1332 0.241,0.2917 0.314,0.4662c0.073,0.1746 0.11,0.3618 0.11,0.551z"/>
  <path id="svg_7" fill="#EE4248" d="m334.456,57.379l-19.388,22.423c-3.66,-2.483 -6.668,-5.813 -8.769,-9.707c-2.1,-3.894 -3.23,-8.236 -3.295,-12.659c0,-15.59 14.202,-28.428 31.452,-28.428c17.25,0 31.452,12.826 31.452,28.428l-31.452,-0.057z"/>
  <path id="svg_8" fill="#263238" d="m336.946,60.938c-0.094,0.159 -0.205,0.307 -0.329,0.443l-1.012,1.206l-3.844,4.548c-3.343,3.912 -8.096,9.438 -13.793,16.09l0,-0.364c4.295,2.957 9.258,4.801 14.441,5.367c5.852,0.675 11.779,-0.22 17.171,-2.592c5.146,-2.236 9.59,-5.823 12.86,-10.382c1.474,-2.126 2.655,-4.44 3.514,-6.88c0.749,-2.279 1.204,-4.644 1.353,-7.038l0.25,0.261l-22.173,-0.375l-6.232,-0.136l-1.648,-0.057c-0.193,0.018 -0.388,0.018 -0.58,0c0.181,-0.018 0.364,-0.018 0.545,0l1.626,0l6.198,0l22.264,0.148l0.273,0l0,0.273c-0.129,2.447 -0.58,4.867 -1.342,7.197c-0.863,2.493 -2.061,4.857 -3.559,7.028c-3.33,4.68 -7.881,8.357 -13.156,10.632c-5.492,2.402 -11.523,3.305 -17.477,2.615c-5.272,-0.598 -10.313,-2.497 -14.669,-5.526l-0.227,-0.16l0.181,-0.216l14.032,-15.999l3.923,-4.434l1.046,-1.137c0.107,-0.181 0.228,-0.353 0.364,-0.512z"/>
  <path id="svg_9" fill="#263238" d="m347.828,42.255c0.974,0 1.763,-0.789 1.763,-1.762c0,-0.974 -0.789,-1.763 -1.763,-1.763c-0.973,0 -1.762,0.789 -1.762,1.763c0,0.973 0.789,1.762 1.762,1.762z"/>
  <path id="svg_10" fill="#263238" d="m384.602,27.598c-0.549,0.085 -1.104,0.123 -1.66,0.114l-4.548,0.091c-3.81,0 -9.097,0.091 -14.885,0.091l-2.774,0l0.204,-0.08c-3.65,3.639 -6.902,6.823 -9.256,9.097l-2.786,2.661c-0.318,0.345 -0.677,0.651 -1.069,0.909c0.276,-0.378 0.585,-0.732 0.921,-1.057c0.694,-0.739 1.592,-1.672 2.661,-2.786c2.274,-2.354 5.481,-5.606 9.097,-9.267l0.08,-0.08l2.99,0c5.811,0 11.076,0 14.885,0.08l4.548,0.102c0.534,-0.009 1.067,0.033 1.592,0.125z"/>
  <path id="svg_11" fill="#263238" d="m424.537,49.749c0.008,-0.203 0.034,-0.405 0.08,-0.603c0.068,-0.409 0.159,-0.966 0.284,-1.683l1.137,-6.356l4.105,-22.8105l0.239,0.2843l-44.04,0.0568l0.284,-0.2388l0,0.1137l0,0.1365l0,0.2615l-0.102,0.5235l-0.193,1.057l-0.387,2.092c-0.262,1.388 -0.512,2.764 -0.773,4.128c-0.501,2.729 -0.997,5.413 -1.49,8.051c-0.989,5.253 -1.933,10.234 -2.808,15.021l-0.273,-0.319l31.725,0.126l9.097,0.079l2.422,0l0.625,0l0.227,0l-0.193,0l-0.603,0l-2.376,0l-9.006,0.068l-31.839,0.125l-0.318,0l0.057,-0.318c0.875,-4.742 1.796,-9.779 2.774,-15.044c0.478,-2.627 0.978,-5.31 1.478,-8.039c0.262,-1.376 0.512,-2.752 0.774,-4.139c0.125,-0.694 0.25,-1.387 0.386,-2.092l0.194,-1.047l0.091,-0.5227l0.056,-0.2729l0,-0.125l0,-0.1024l0.296,-0.2501l44.04,0.0568l0.159,0l-0.057,0.2843c-1.819,9.518 -3.32,17.375 -4.366,22.89c-0.535,2.695 -0.944,4.81 -1.24,6.299l-0.329,1.626c-0.091,0.512 -0.137,0.694 -0.137,0.683z"/>
  <path id="svg_12" fill="#263238" d="m350.592,77.71c0.973,0 1.762,-0.789 1.762,-1.762c0,-0.974 -0.789,-1.763 -1.762,-1.763c-0.974,0 -1.763,0.789 -1.763,1.763c0,0.973 0.789,1.762 1.763,1.762z"/>
  <path id="svg_13" fill="#263238" d="m382.59,75.948c0,0.17 -7.164,0.295 -15.999,0.295c-8.836,0 -16,-0.125 -16,-0.295c0,-0.171 7.164,-0.296 16,-0.296c8.835,0 15.999,0.136 15.999,0.296z"/>
  <path id="svg_14" fill="#263238" d="m424.537,89.684c0.014,-0.146 0.041,-0.291 0.08,-0.432c0.068,-0.307 0.159,-0.717 0.284,-1.228c0.262,-1.138 0.637,-2.65 1.137,-4.628c0.99,-4.026 2.4,-9.768 4.139,-16.83l0.216,0.273l-45.416,0.069l0.285,-0.216l0,0.068l0,0.091l0,0.193l-0.103,0.387l-0.193,0.75l-0.375,1.524c-0.262,1.001 -0.512,2.001 -0.762,3.002l-1.615,5.958c-0.978,3.855 -1.921,7.585 -2.831,11.144l-0.262,-0.341l32.578,0.125l9.416,0.068l2.524,0l0.659,0l0.239,0l-0.204,0l-0.637,0l-2.468,0l-9.369,0.068l-32.738,0.125l-0.363,0l0.09,-0.352c0.899,-3.559 1.831,-7.3 2.798,-11.155c0.485,-1.933 0.981,-3.893 1.489,-5.879l0.751,-3.002l0.386,-1.512l0.194,-0.762l0.091,-0.387l0,-0.182l0,-0.102l0,-0.068l0.284,-0.228l45.416,0.08l0.409,0l-0.068,0.273c-1.842,7.095 -3.332,12.86 -4.378,16.897c-0.523,1.945 -0.932,3.48 -1.217,4.549c-0.136,0.489 -0.238,0.875 -0.318,1.137c-0.08,0.261 -0.148,0.534 -0.148,0.523z"/>
  <path id="svg_15" fill="#263238" d="m420.955,27.996c0,0.171 -6.743,0.296 -15.066,0.296c-8.324,0 -15.067,-0.125 -15.067,-0.296c0,-0.171 6.743,-0.296 15.067,-0.296c8.323,0 15.066,0.137 15.066,0.296z"/>
  <path id="svg_16" fill="#263238" d="m420.603,32.931c0,0.171 -6.823,0.296 -15.146,0.296c-8.324,0 -15.158,-0.125 -15.158,-0.296c0,-0.171 6.823,-0.296 15.158,-0.296c8.335,0 15.146,0.137 15.146,0.296z"/>
  <path id="svg_17" fill="#263238" d="m419.727,37.73c0,0.159 -6.549,0.295 -14.623,0.295c-8.073,0 -14.634,-0.136 -14.634,-0.295c0,-0.16 6.549,-0.296 14.634,-0.296c8.085,0 14.623,0.091 14.623,0.296z"/>
  <path id="svg_18" fill="#263238" d="m420.25,75.402c0,0.159 -6.424,0.295 -14.361,0.295c-7.937,0 -14.362,-0.136 -14.362,-0.295c0,-0.159 6.436,-0.296 14.362,-0.296c7.925,0 14.361,0.148 14.361,0.296z"/>
  <path id="svg_19" fill="#263238" d="m418.488,80.86c0,0.17 -5.481,0.296 -12.247,0.296c-6.765,0 -12.246,-0.126 -12.246,-0.296c0,-0.171 5.481,-0.296 12.246,-0.296c6.766,0 12.247,0.137 12.247,0.296z"/>
  <path id="svg_20" fill="#455A64" d="m235.471,195.105c-0.546,3.195 -15.715,36.762 -5.924,36.762l49.214,0c0,0 -5.083,-4.776 10.302,-36.762l-53.592,0z"/>
  <path id="svg_21" fill="#455A64" d="m203.632,83.066l-20.115,117.554l169.667,0l20.809,-121.682l-170.361,4.128z"/>
  <path id="svg_22" fill="#FAFAFA" d="m209.398,88.797l-16.955,104.932l154.931,0l18.671,-106.047l-156.647,1.115z"/>
  <path id="svg_23" fill="#263238" d="m373.993,78.938l3.207,2.161l-21.605,122.716l-167.598,0l-4.48,-3.195l169.667,0l20.809,-121.682z"/>
  <path id="svg_24" fill="#EBEBEB" d="m207.862,98.348c0.057,-0.375 156.409,-0.591 156.409,-0.591l1.774,-10.075l-156.647,1.138l-1.536,9.551"/>
  <path id="svg_25" fill="#263238" d="m322.96,184.416l0,-0.296l0.136,-0.875c0.144,-0.834 0.338,-1.971 0.58,-3.412c0.535,-3.059 1.285,-7.448 2.218,-12.894c1.933,-11.03 4.628,-26.381 7.686,-43.802l0,-0.25l12.804,0l-0.057,0.353c-4.741,25.687 -8.892,48.258 -11.291,61.233l0,0.136l-0.125,0l-8.915,-0.091l-2.274,0l-0.557,0l0.614,0l2.353,0l8.813,-0.091l-0.159,0.125l11.007,-61.278l0.296,0.341l-12.19,0l0.284,-0.239c-3.15,17.318 -5.913,32.567 -7.96,43.54c-1,5.458 -1.819,9.858 -2.388,12.929c-0.284,1.489 -0.5,2.66 -0.659,3.502c-0.08,0.375 -0.137,0.682 -0.182,0.91c-0.009,0.053 -0.021,0.106 -0.034,0.159z"/>
  <path id="svg_26" fill="#263238" d="m303.311,184.416c0.015,-0.277 0.057,-0.551 0.125,-0.819c0.102,-0.603 0.25,-1.41 0.432,-2.433c0.409,-2.195 0.978,-5.299 1.694,-9.097c1.49,-7.88 3.571,-18.842 5.947,-31.373l0,-0.239l12.804,0l-0.068,0.353c-3.593,17.818 -6.823,33.658 -8.824,43.699l0,0.148l-0.148,0l-8.903,-0.103l-2.275,0c-0.253,0.017 -0.508,0.017 -0.761,0l0.841,0l2.365,0l8.779,-0.102l-0.182,0.148c1.978,-10.052 5.094,-25.903 8.596,-43.745l0.284,0.353l-12.258,0l0.285,-0.228c-2.468,12.418 -4.628,23.288 -6.186,31.1c-0.785,3.878 -1.41,6.993 -1.865,9.188l-0.512,2.49c0,0.262 -0.113,0.478 -0.147,0.648l-0.023,0.012z"/>
  <path id="svg_27" fill="#263238" d="m283.582,184.416c-0.01,-0.121 -0.01,-0.243 0,-0.364l0.182,-1.137c0.171,-1.001 0.409,-2.434 0.728,-4.276c0.659,-3.763 1.603,-9.187 2.786,-15.919c2.41,-13.645 5.765,-32.533 9.563,-53.944l0,-0.239l12.803,0l-0.056,0.341c-5.936,32.51 -11.178,60.835 -13.953,75.538l0,0.125l-0.125,0l-8.949,-0.091l-2.274,0l-0.75,0l0.807,0l2.331,0l8.847,-0.08l-0.137,0.114c2.593,-14.782 7.71,-43.085 13.645,-75.583l0.296,0.352l-12.156,0l0.285,-0.25c-3.878,21.298 -7.312,40.128 -9.791,53.671c-1.251,6.755 -2.274,12.201 -2.956,15.977l-0.819,4.332c-0.091,0.478 -0.159,0.853 -0.216,1.137l-0.091,0.296z"/>
  <path id="svg_28" fill="#263238" d="m263.887,184.416c0.009,-0.191 0.032,-0.381 0.069,-0.569c0.079,-0.443 0.17,-1 0.284,-1.705c0.261,-1.57 0.637,-3.753 1.137,-6.471c0.989,-5.628 2.365,-13.44 3.946,-22.469l0,-0.238l12.792,0l-0.068,0.352c-2.354,12.281 -4.469,23.333 -5.97,31.145l0,0.171l-0.159,0l-8.869,-0.114l-2.4,-0.102c-0.261,0.016 -0.523,0.016 -0.784,0l0.864,0l2.399,0l8.733,-0.114l-0.205,0.159c1.456,-7.812 3.514,-18.887 5.788,-31.179l0.296,0.352l-12.178,0l0.272,-0.227c-1.682,8.926 -3.127,16.647 -4.184,22.208c-0.523,2.729 -0.955,4.935 -1.262,6.515c-0.148,0.717 -0.262,1.308 -0.353,1.751c-0.039,0.181 -0.088,0.36 -0.148,0.535z"/>
  <path id="svg_29" fill="#263238" d="m244.181,184.416c0,0 0,-0.08 0,-0.239c0,-0.159 0,-0.443 0.103,-0.739c0.114,-0.694 0.261,-1.649 0.455,-2.877c0.42,-2.558 1.012,-6.22 1.751,-10.768c1.546,-9.256 3.684,-22.128 6.129,-36.786l0,-0.238l12.804,0l-0.069,0.352c-3.752,21.184 -7.061,39.912 -9.096,51.329l0,0.148l-0.137,0l-8.892,-0.103l-2.331,0c-0.254,0.017 -0.508,0.017 -0.762,0l0.216,0l0.614,0l2.365,0l8.79,-0.091l-0.17,0.137l8.846,-51.374l0.296,0.352l-12.133,0l0.284,-0.239c-2.536,14.555 -4.764,27.291 -6.368,36.513c-0.818,4.548 -1.466,8.244 -1.933,10.825c-0.227,1.239 -0.398,2.274 -0.534,2.922l-0.148,0.773l-0.08,0.103z"/>
  <path id="svg_30" fill="#263238" d="m224.51,184.416c-0.015,-0.11 -0.015,-0.221 0,-0.33c0,-0.25 0.091,-0.58 0.159,-1.001c0.159,-0.921 0.375,-2.274 0.659,-3.911c0.58,-3.412 1.433,-8.403 2.479,-14.567c2.161,-12.451 5.174,-29.78 8.585,-49.395l0,-0.239l12.804,0l-0.057,0.352c-5.299,29.474 -9.984,55.241 -12.565,69.125l0,0.125l-0.125,0l-8.926,-0.091l-2.274,0l-0.546,0l0.603,0l2.331,0l8.835,-0.091l-0.148,0.125c2.411,-13.918 6.982,-39.707 12.281,-69.17l0.284,0.341l-12.178,0l0.284,-0.238c-3.491,19.512 -6.584,36.739 -8.801,49.122c-1.137,6.186 -2.036,11.155 -2.672,14.612c-0.307,1.706 -0.558,3.025 -0.728,3.969c-0.091,0.432 -0.148,0.773 -0.205,1.034c-0.057,0.262 -0.079,0.228 -0.079,0.228z"/>
  <path id="svg_31" fill="#263238" d="m215.947,93.527c0.002,0.286 -0.08,0.567 -0.238,0.806c-0.157,0.239 -0.382,0.425 -0.645,0.536c-0.264,0.111 -0.555,0.142 -0.836,0.087c-0.28,-0.054 -0.539,-0.191 -0.742,-0.392c-0.203,-0.202 -0.342,-0.459 -0.398,-0.74c-0.057,-0.28 -0.029,-0.571 0.08,-0.835c0.109,-0.265 0.294,-0.491 0.532,-0.65c0.237,-0.16 0.517,-0.245 0.803,-0.245c0.381,0 0.747,0.151 1.017,0.419c0.271,0.269 0.424,0.633 0.427,1.014z"/>
  <path id="svg_32" fill="#263238" d="m221.564,94.96c0.792,0 1.433,-0.642 1.433,-1.433c0,-0.791 -0.641,-1.433 -1.433,-1.433c-0.791,0 -1.432,0.642 -1.432,1.433c0,0.791 0.641,1.433 1.432,1.433z"/>
  <path id="svg_33" fill="#263238" d="m230.059,93.527c0.002,0.287 -0.081,0.567 -0.239,0.807c-0.158,0.239 -0.383,0.426 -0.648,0.536c-0.264,0.111 -0.555,0.141 -0.836,0.085c-0.282,-0.055 -0.54,-0.193 -0.743,-0.395c-0.202,-0.203 -0.34,-0.461 -0.395,-0.743c-0.056,-0.281 -0.026,-0.572 0.085,-0.836c0.11,-0.265 0.297,-0.49 0.536,-0.648c0.24,-0.158 0.52,-0.241 0.807,-0.239c0.379,0.003 0.742,0.155 1.01,0.423c0.268,0.268 0.42,0.631 0.423,1.01z"/>
  <path id="svg_34" fill="#263238" d="m204.815,184.416c0,0 0,-0.296 0.125,-0.876c0.125,-0.58 0.239,-1.489 0.421,-2.581c0.398,-2.274 0.955,-5.606 1.649,-9.688c1.455,-8.346 3.468,-19.945 5.776,-33.181l0,-0.239l12.804,0l-0.068,0.353c-3.514,18.944 -6.641,35.75 -8.586,46.257l0,0.148l-0.136,0l-8.904,-0.102l-2.274,0c-0.257,0.016 -0.515,0.016 -0.773,0l0.227,0l0.614,0l2.366,0l8.789,-0.103l-0.181,0.148l8.357,-46.291l0.285,0.341l-12.236,0l0.285,-0.239c-2.4,13.134 -4.549,24.641 -6.004,32.908c-0.774,4.105 -1.388,7.414 -1.831,9.733c-0.205,1.138 -0.375,2.002 -0.5,2.639l-0.137,0.693c-0.021,0.028 -0.044,0.054 -0.068,0.08z"/>
  <path id="svg_35" fill="#EE4248" d="m337.731,138.147l-64.906,0l3.707,-21.787l65.361,0l-4.162,21.787z"/>
  <path id="svg_36" fill="#EE4248" d="m272.825,138.147l-1.262,7.607c0,0 8.528,-7.903 8.392,-7.903l-7.073,0"/>
  <path id="svg_37" fill="#FAFAFA" d="m332.102,123.933c0,0.16 -10.814,0.296 -24.14,0.296c-13.327,0 -24.152,-0.136 -24.152,-0.296c0,-0.159 10.813,-0.295 24.152,-0.295c13.338,0 24.14,0.136 24.14,0.295z"/>
  <path id="svg_38" fill="#FAFAFA" d="m331.465,129.198c0,0.159 -10.813,0.296 -24.14,0.296c-13.327,0 -24.152,-0.137 -24.152,-0.296c0,-0.159 10.814,-0.296 24.152,-0.296c13.338,0 24.14,0.126 24.14,0.296z"/>
  <path id="svg_39" fill="#263238" d="m437.625,239.395l-184.915,0l0,107.899l184.915,0l0,-107.899z"/>
  <path id="svg_40" fill="#455A64" d="m336.946,239.395l-84.236,0l0,107.899l84.236,0l0,-107.899z"/>
  <path id="svg_41" fill="#263238" d="m328.327,276.044c0,0 0,-0.194 0,-0.546c0,-0.353 0,-0.899 0,-1.569c0,-1.399 0,-3.412 -0.057,-5.993c0,-5.185 -0.057,-12.656 -0.114,-21.866l0.216,0.216l-67.76,0.079c-0.261,0.273 0.353,-0.352 0.296,-0.284l0,7.8c0,2.582 0,5.129 0,7.63c0,5.015 0,9.882 0,14.533l-0.273,-0.273l48.566,0.125l14.089,0.079l3.775,0l0.989,0l0.341,0c-0.102,0.011 -0.205,0.011 -0.307,0l-0.955,0l-3.718,0l-14.021,0.08l-48.759,0.136l-0.284,0l0,-0.284c0,-4.651 0,-9.517 0,-14.532l0,-15.294c-0.068,0 0.557,-0.569 0.296,-0.307l67.68,0.045l0.216,0l0,0.205c0,9.267 -0.091,16.772 -0.114,22.003c0,2.558 0,4.548 -0.057,5.936c0,0.648 0,1.137 0,1.535c-0.001,0.183 -0.017,0.365 -0.045,0.546z"/>
  <path id="svg_42" fill="#263238" d="m297.364,261.056c0,0 -0.068,-0.25 -0.205,-0.67c-0.19,-0.582 -0.56,-1.088 -1.057,-1.445c-0.359,-0.259 -0.776,-0.425 -1.215,-0.483c-0.439,-0.057 -0.885,-0.005 -1.298,0.154c-0.5,0.186 -0.931,0.521 -1.235,0.959c-0.304,0.438 -0.467,0.958 -0.467,1.491c0,0.533 0.163,1.054 0.467,1.492c0.304,0.438 0.735,0.772 1.235,0.959c0.414,0.152 0.859,0.202 1.297,0.144c0.437,-0.057 0.855,-0.22 1.216,-0.474c0.497,-0.357 0.867,-0.863 1.057,-1.444c0.137,-0.421 0.148,-0.683 0.205,-0.683c0.057,0 0.091,0.262 0,0.74c-0.132,0.676 -0.498,1.284 -1.035,1.717c-0.406,0.33 -0.89,0.55 -1.406,0.64c-0.515,0.089 -1.045,0.045 -1.539,-0.129c-0.614,-0.215 -1.146,-0.615 -1.523,-1.146c-0.376,-0.531 -0.579,-1.165 -0.579,-1.816c0,-0.65 0.203,-1.285 0.579,-1.816c0.377,-0.53 0.909,-0.931 1.523,-1.146c0.493,-0.172 1.022,-0.216 1.537,-0.129c0.515,0.088 0.999,0.304 1.408,0.629c0.538,0.436 0.905,1.049 1.035,1.729c0.091,0.477 0.034,0.739 0,0.727z"/>
  <path id="svg_43" fill="#263238" d="m328.327,309.042c0,0 0,-0.193 0,-0.546c0,-0.352 0,-0.909 0,-1.58c0,-1.399 0,-3.411 -0.057,-5.981c0,-5.197 -0.057,-12.656 -0.113,-21.867l0.216,0.216l-67.76,0.08l0.295,-0.296l0,7.789c0,2.582 0,5.117 0,7.63c0,5.015 0,9.87 0,14.532l-0.273,-0.284l48.566,0.137l14.089,0.079l3.775,0l0.989,0c0.114,-0.009 0.228,-0.009 0.341,0l-0.307,0l-0.955,0l-3.718,0l-14.021,0.08l-48.759,0.136l-0.284,0l0,-0.284c0,-4.662 0,-9.518 0,-14.532l0,-15.26l0.296,-0.296l67.76,0.08l0.216,0l0,0.216c0,9.267 -0.091,16.772 -0.114,21.992c0,2.558 0,4.548 -0.057,5.947c0,0.648 0,1.137 0,1.523c-0.031,0.166 -0.073,0.329 -0.125,0.489z"/>
  <path id="svg_44" fill="#263238" d="m297.364,294.055c0,0 -0.068,-0.261 -0.205,-0.682c-0.19,-0.582 -0.56,-1.088 -1.057,-1.444c-0.361,-0.254 -0.779,-0.417 -1.216,-0.474c-0.438,-0.058 -0.883,-0.008 -1.297,0.144c-0.5,0.186 -0.931,0.521 -1.235,0.959c-0.304,0.438 -0.467,0.958 -0.467,1.492c0,0.533 0.163,1.053 0.467,1.491c0.304,0.438 0.735,0.773 1.235,0.959c0.412,0.157 0.858,0.21 1.296,0.154c0.438,-0.055 0.856,-0.217 1.217,-0.472c0.5,-0.359 0.871,-0.869 1.057,-1.456c0.137,-0.421 0.148,-0.671 0.205,-0.671c0.057,0 0.091,0.262 0,0.728c-0.128,0.681 -0.495,1.294 -1.035,1.728c-0.407,0.329 -0.892,0.547 -1.407,0.634c-0.516,0.088 -1.045,0.042 -1.538,-0.133c-0.614,-0.215 -1.146,-0.616 -1.523,-1.147c-0.376,-0.53 -0.579,-1.165 -0.579,-1.815c0,-0.651 0.203,-1.286 0.579,-1.816c0.377,-0.531 0.909,-0.932 1.523,-1.147c0.494,-0.173 1.024,-0.218 1.539,-0.128c0.516,0.09 1,0.31 1.406,0.64c0.54,0.435 0.907,1.048 1.035,1.728c0.091,0.467 0.034,0.728 0,0.728z"/>
  <path id="svg_45" fill="#263238" d="m328.327,342.03c0,0 0,-0.194 0,-0.546c0,-0.353 0,-0.899 0,-1.569c0,-1.399 0,-3.412 -0.057,-5.993c0,-5.185 -0.057,-12.656 -0.114,-21.866l0.216,0.216l-67.76,0.079c-0.261,0.273 0.353,-0.352 0.296,-0.284l0,7.8c0,2.582 0,5.129 0,7.63c0,5.015 0,9.882 0,14.533l-0.273,-0.273l48.566,0.125l14.089,0.079l3.775,0l0.989,0l0.341,0c-0.102,0.011 -0.205,0.011 -0.307,0l-0.955,0l-3.718,0l-14.021,0.069l-48.759,0.136l-0.284,0l0,-0.284c0,-4.651 0,-9.518 0,-14.532l0,-15.283c-0.068,0.057 0.557,-0.569 0.296,-0.307l67.76,0.091l0.216,0l0,0.205c0,9.267 -0.091,16.783 -0.114,22.003c0,2.558 0,4.548 -0.057,5.935c0,0.66 0,1.137 0,1.535c-0.03,0.17 -0.072,0.337 -0.125,0.501z"/>
  <path id="svg_46" fill="#263238" d="m297.364,327.043c0,0 -0.068,-0.251 -0.205,-0.671c-0.19,-0.582 -0.56,-1.088 -1.057,-1.444c-0.36,-0.257 -0.778,-0.422 -1.216,-0.479c-0.438,-0.058 -0.884,-0.007 -1.297,0.149c-0.5,0.186 -0.931,0.521 -1.235,0.959c-0.304,0.438 -0.467,0.958 -0.467,1.491c0,0.533 0.163,1.054 0.467,1.492c0.304,0.438 0.735,0.772 1.235,0.959c0.413,0.155 0.859,0.206 1.297,0.149c0.438,-0.058 0.856,-0.222 1.216,-0.479c0.497,-0.357 0.867,-0.863 1.057,-1.444c0.137,-0.421 0.148,-0.682 0.205,-0.682c0.057,0 0.091,0.261 0,0.739c-0.133,0.679 -0.499,1.29 -1.035,1.728c-0.409,0.325 -0.893,0.542 -1.408,0.629c-0.515,0.088 -1.044,0.044 -1.537,-0.129c-0.614,-0.215 -1.146,-0.615 -1.523,-1.146c-0.376,-0.53 -0.579,-1.165 -0.579,-1.816c0,-0.65 0.203,-1.285 0.579,-1.816c0.377,-0.53 0.909,-0.931 1.523,-1.146c0.493,-0.172 1.022,-0.216 1.537,-0.129c0.515,0.088 0.999,0.304 1.408,0.629c0.538,0.436 0.905,1.049 1.035,1.729c0.091,0.477 0.034,0.739 0,0.728z"/>
  <path id="svg_47" fill="#263238" d="m161.514,239.395l-155.54421,0l0,107.899l155.54421,0l0,-107.899z"/>
  <path id="svg_48" fill="#263238" d="m444.323,231.867l-444.323,0l0,10.257l444.323,0l0,-10.257z"/>
  <path id="svg_49" fill="#455A64" d="m19.7515,242.124l-13.78171,0l0,105.17l13.78171,0l0,-105.17z"/>
  <path id="svg_50" fill="#263238" d="m178.718,69.568c-0.091,-0.431 -0.156,-0.868 -0.193,-1.307c-0.165,-1.169 -0.551,-2.296 -1.137,-3.321c-0.38,-0.686 -0.958,-1.241 -1.66,-1.592c-0.396,-0.169 -0.833,-0.218 -1.256,-0.139c-0.423,0.079 -0.813,0.282 -1.121,0.583c-1.317,1.635 -2.035,3.671 -2.035,5.771c0,2.099 0.718,4.136 2.035,5.771c0.307,0.303 0.696,0.508 1.119,0.589c0.424,0.081 0.861,0.034 1.258,-0.135c0.7,-0.358 1.278,-0.916 1.66,-1.603c0.586,-1.025 0.972,-2.152 1.137,-3.32c0.037,-0.436 0.101,-0.869 0.193,-1.297c0.074,0.441 0.074,0.89 0,1.331c-0.076,1.224 -0.413,2.419 -0.989,3.502c-0.411,0.781 -1.049,1.42 -1.831,1.831c-0.463,0.222 -0.982,0.297 -1.489,0.216c-0.53,-0.104 -1.023,-0.343 -1.433,-0.694c-1.468,-1.727 -2.274,-3.919 -2.274,-6.186c0,-2.266 0.806,-4.459 2.274,-6.185c0.406,-0.359 0.901,-0.602 1.433,-0.705c0.507,-0.076 1.025,-0.001 1.489,0.216c0.782,0.411 1.42,1.049 1.831,1.83c0.578,1.087 0.915,2.285 0.989,3.514c0.073,0.44 0.073,0.89 0,1.33z"/>
  <path id="svg_51" fill="#FFBE9D" d="m129.63,47.338l-3.412,68.135l29.269,2.752l1.615,-16.545c0,0 10.234,2.547 13.418,-6.97c1.99,-6.084 3.764,-53.717 3.764,-53.717l-44.654,6.345z"/>
  <path id="svg_52" fill="#263238" d="m180.504,48.02c-2.491,5.925 -11.883,11.007 -11.883,11.007l-1.535,15.09c-1.397,-0.097 -2.799,-0.097 -4.196,0c0.75,-7.084 -8.358,-5.686 -9.29,-0.876c-0.887,4.64 4.4,7.744 4.4,7.744c-3.65,5.594 -5.128,8.551 -10.313,13.793c-5.595,5.685 -8.608,6.14 -14.396,5.97l-6.379,-0.296c0,0 -2.274,-5.447 -3.923,-18.307c-0.807,-6.186 -5.685,-14.294 -4.264,-24.357c3.912,-28.575 35.534,-23.504 35.534,-23.504c11.872,-9.233 32.112,-0.193 26.245,13.736z"/>
  <path id="svg_53" fill="#263238" d="m178.718,69.648c-2.158,0.416 -4.351,0.629 -6.549,0.637c-2.187,0.194 -4.386,0.194 -6.573,0c2.156,-0.409 4.345,-0.619 6.539,-0.626c2.19,-0.194 4.393,-0.198 6.583,-0.011z"/>
  <path id="svg_54" fill="#FFBE9D" d="m271.961,149.689l-10.632,6.583l-3.9,9.097l0,-7.959c0,0 2.888,-3.412 5.253,-5.902c2.365,-2.49 0.671,-4.219 0,-5.071c-0.671,-0.853 -10.848,10.973 -10.848,10.973l0,6.822c-4.742,-5.833 -6.936,-3.832 -7.664,-2.774c-0.728,1.057 7.664,8.971 7.664,8.971l0,2.411l-41.697,22.424l-10.973,-27.291l-22.413,11.769l13.384,32.396c0.923,2.242 2.317,4.258 4.088,5.913c1.771,1.655 3.877,2.909 6.175,3.678c2.299,0.769 4.736,1.035 7.146,0.779c2.41,-0.256 4.737,-1.028 6.823,-2.262l49.066,-29.008l3.263,-5.446c1.133,-1.877 1.8,-3.999 1.945,-6.186l1.694,-24.505c2.979,-1.865 1.626,-5.412 1.626,-5.412z"/>
  <path id="svg_55" fill="#EB996E" d="m210.341,195.298c-0.99,3.837 -2.37,7.563 -4.116,11.121c1.004,-3.833 2.383,-7.558 4.116,-11.121z"/>
  <path id="svg_56" fill="#EB996E" d="m270.335,155.101c-0.628,0.324 -1.274,0.612 -1.933,0.864c-0.753,0.357 -1.424,0.864 -1.974,1.49c-0.549,0.625 -0.965,1.357 -1.221,2.149c-0.85,2.29 -1.885,4.507 -3.093,6.63c0.666,-2.339 1.518,-4.62 2.547,-6.823c0.332,-0.931 0.859,-1.78 1.546,-2.49c0.589,-0.548 1.271,-0.987 2.013,-1.297c0.656,-0.333 1.379,-0.512 2.115,-0.523z"/>
  <path id="svg_57" fill="#EB996E" d="m270.176,158.979c-0.185,0.025 -0.361,0.091 -0.517,0.193c-0.155,0.102 -0.286,0.238 -0.382,0.398c-0.329,0.637 -0.75,1.638 -1.137,2.706c-0.427,1.353 -0.928,2.682 -1.501,3.98c0.002,-1.451 0.324,-2.884 0.944,-4.196c0.367,-0.957 0.836,-1.872 1.399,-2.729c0.103,-0.142 0.235,-0.261 0.388,-0.347c0.153,-0.087 0.323,-0.139 0.499,-0.153c0.216,0 0.318,0.114 0.307,0.148z"/>
  <path id="svg_58" fill="#EE4248" d="m170.054,175.592l4.764,16.135l30.236,-13.645c-1.137,-3.411 -6.095,-18.432 -15.658,-42.311c-2.619,-6.548 -6.878,-12.311 -12.369,-16.736c-5.49,-4.425 -12.027,-7.363 -18.981,-8.531c-9.893,-1.649 -20.661,-2.934 -28.951,-2.831c-8.229,0.076 -16.184,2.975 -22.533,8.211c-6.35,5.236 -10.7104,12.493 -12.353,20.557c-2.5585,12.679 1.9217,21.06 -0.9665,48.805l-0.9211,69.784l80.7346,2.968l-3.002,-82.406z"/>
  <path id="svg_59" fill="#EE4248" d="m96.9949,184.507c0,0 -11.2232,0.659 -15.6352,-7.835c0,0 12.0874,-44.688 16.3061,-49.953l-0.6709,57.788z"/>
  <path id="svg_60" fill="#263238" d="m190.92,140.273c-0.289,0.224 -0.612,0.4 -0.956,0.524c-0.989,0.359 -2.029,0.554 -3.081,0.579c-1.653,-0.008 -3.299,-0.218 -4.901,-0.625c-1.865,-0.421 -3.946,-1.046 -6.277,-1.433c-1.215,-0.146 -2.438,-0.211 -3.661,-0.193c-1.324,0.105 -2.636,0.322 -3.923,0.648c-2.855,0.776 -5.597,1.923 -8.153,3.411c-2.764,1.501 -5.572,3.275 -8.563,5.026c-3.068,1.905 -6.356,3.432 -9.79,4.549c-3.529,1.093 -7.298,1.152 -10.86,0.17c-3.23,-1.045 -6.24,-2.675 -8.88,-4.81c-2.536,-1.967 -4.742,-4.036 -6.823,-5.924c-1.898,-1.769 -3.911,-3.41 -6.027,-4.912c-3.011,-2.251 -6.522,-3.741 -10.2335,-4.344c-1.371,-0.077 -2.7453,-0.077 -4.1163,0c0.3353,-0.136 0.687,-0.228 1.0461,-0.273c1.03,-0.164 2.0749,-0.213 3.1157,-0.148c3.833,0.445 7.489,1.862 10.621,4.117c2.184,1.474 4.259,3.104 6.208,4.878c2.115,1.865 4.344,3.889 6.823,5.776c2.548,2.02 5.442,3.56 8.539,4.549c3.361,0.905 6.91,0.838 10.234,-0.194c3.34,-1.091 6.542,-2.568 9.541,-4.4c2.967,-1.717 5.799,-3.491 8.619,-4.992c2.652,-1.507 5.493,-2.654 8.448,-3.411c1.352,-0.324 2.73,-0.529 4.117,-0.614c1.282,0.013 2.562,0.112 3.832,0.295c2.411,0.455 4.469,1.137 6.299,1.615c1.545,0.445 3.136,0.712 4.742,0.796c1.379,-0.008 2.749,-0.23 4.06,-0.66z"/>
  <path id="svg_61" fill="#263238" d="m170.588,195.957c-1.541,-0.918 -3.243,-1.535 -5.014,-1.819c-1.93,-0.228 -3.884,-0.12 -5.777,0.318c-2.16,0.432 -4.491,1.217 -7.05,1.854c-4.39,1.129 -8.987,1.191 -13.406,0.182c-3.412,-0.796 -5.242,-1.876 -5.186,-1.99c0.057,-0.114 2.036,0.603 5.356,1.137c4.306,0.733 8.717,0.559 12.952,-0.512c2.49,-0.625 4.867,-1.387 7.129,-1.785c2.017,-0.408 4.093,-0.431 6.118,-0.068c1.371,0.244 2.674,0.779 3.821,1.569c0.796,0.625 1.114,1.069 1.057,1.114z"/>
  <path id="svg_62" fill="#263238" d="m171.407,237.621c0,0 -0.307,0.512 -1.069,1.228c-1.1,1.006 -2.332,1.859 -3.661,2.536c-1.995,1.035 -4.201,1.595 -6.448,1.637c-2.742,-0.075 -5.445,-0.677 -7.96,-1.774c-2.649,-1.035 -5.071,-2.194 -7.357,-2.843c-2.02,-0.617 -4.135,-0.863 -6.242,-0.727c-1.408,0.084 -2.781,0.472 -4.026,1.137c-0.887,0.489 -1.296,0.887 -1.375,0.807c-0.08,-0.079 0.272,-0.557 1.137,-1.137c1.232,-0.893 2.673,-1.457 4.184,-1.637c2.218,-0.259 4.466,-0.086 6.618,0.511c2.552,0.793 5.057,1.727 7.505,2.798c2.371,1.037 4.909,1.642 7.493,1.785c2.099,0.009 4.174,-0.437 6.084,-1.308c3.354,-1.512 5.003,-3.184 5.117,-3.013z"/>
  <g id="svg_63" opacity="0.3">
   <path id="svg_64" fill="black" d="m83.85,185.291c10.5751,2.161 21.434,0 32.203,-0.659c6.538,-0.387 13.781,-1.137 18.944,2.922c4.093,3.184 5.685,8.54 6.925,13.589c4.548,19.262 5.333,36.466 6.345,56.218l-52.3068,-1.137l-12.1102,-70.933z" opacity="0.3"/>
  </g>
  <path id="svg_65" fill="black" d="m97.6658,149.029l2.2628,32.612l-6.8908,0l4.628,-32.612z" opacity="0.3"/>
  <path id="svg_66" fill="#263238" d="m112.357,254.984l103.818,3.673c8.101,0.285 15.768,3.737 21.351,9.614c5.584,5.877 8.639,13.71 8.509,21.816l-0.91,58.913l-38.07,0l-2.456,-50.794l-92.242,-2.434l0,-40.788z"/>
  <path id="svg_67" fill="#455A64" d="m147.175,308.849l-10.211,0l0,37.376l10.211,0l0,-37.376z"/>
  <path id="svg_68" fill="#455A64" d="m51.2834,190.101l0,90.059c0.003,5.671 2.2578,11.108 6.2687,15.117c4.0108,4.008 9.4495,6.26 15.1202,6.26l59.9707,0l0,-111.436c-0.003,-2.528 -1.009,-4.952 -2.798,-6.738c-1.789,-1.787 -4.214,-2.791 -6.742,-2.791l-62.2907,0c-2.5272,0 -4.9509,1.004 -6.738,2.791c-1.787,1.787 -2.7909,4.211 -2.7909,6.738z"/>
  <path id="svg_69" fill="#455A64" d="m213.355,308.849l-146.0499,0c0.0181,-4.21 1.7032,-8.242 4.6868,-11.213c2.9835,-2.97 7.0223,-4.638 11.2327,-4.638l114.3354,0c4.204,0 8.236,1.67 11.209,4.642c2.972,2.973 4.642,7.005 4.642,11.209l-0.056,0z"/>
  <path id="svg_70" fill="#263238" d="m132.643,290.894c0.066,0.89 -0.01,1.784 -0.227,2.65c-0.49,2.027 -1.557,3.869 -3.073,5.302c-1.516,1.433 -3.415,2.396 -5.467,2.771c-0.928,0.151 -1.868,0.215 -2.809,0.193l-2.945,0l-13.122,0l-23.8791,0l-7.2206,-0.091l-1.9672,0c-0.2294,0.007 -0.4588,-0.015 -0.6822,-0.068c0.2256,-0.036 0.4537,-0.055 0.6822,-0.057l1.9672,-0.057l7.2206,-0.102l23.8791,-0.114l16.067,0c0.913,0.035 1.827,-0.018 2.729,-0.159c1.597,-0.276 3.105,-0.926 4.401,-1.899c1.923,-1.421 3.313,-3.448 3.946,-5.754c0.477,-1.66 0.42,-2.626 0.5,-2.615z"/>
  <path id="svg_71" fill="#263238" d="m151.019,309.156c-2.973,0.3 -5.963,0.398 -8.949,0.296c-2.99,0.103 -5.984,0.004 -8.961,-0.296c2.977,-0.293 5.971,-0.392 8.961,-0.296c2.986,-0.096 5.975,0.003 8.949,0.296z"/>
  <path id="svg_72" fill="#455A64" d="m195.457,302.333c-0.142,-0.365 -0.233,-0.747 -0.273,-1.137c-0.148,-0.739 -0.341,-1.808 -0.569,-3.195c-0.466,-2.786 -1.137,-6.823 -1.865,-11.78c-0.409,-2.479 -0.739,-5.242 -1.285,-8.119c-0.147,-0.717 -0.284,-1.444 -0.432,-2.195c-0.148,-0.75 -0.432,-1.455 -0.648,-2.206c-0.114,-0.364 -0.216,-0.75 -0.33,-1.137c-0.113,-0.387 -0.284,-0.739 -0.432,-1.137c-0.307,-0.751 -0.58,-1.512 -0.909,-2.274c-1.444,-3.114 -3.27,-6.036 -5.436,-8.699c-2.365,-2.829 -5.117,-5.309 -8.176,-7.369c-3.044,-2.083 -6.388,-3.694 -9.915,-4.775c-3.274,-1.04 -6.676,-1.621 -10.109,-1.729c-6.618,-0.148 -12.645,-0.114 -17.67,-0.182c-5.026,-0.068 -9.097,-0.125 -11.917,-0.193c-1.41,0 -2.502,-0.068 -3.252,-0.114c-0.383,0.012 -0.765,-0.026 -1.138,-0.113c0.372,-0.096 0.754,-0.138 1.138,-0.126l3.252,-0.113c2.808,-0.069 6.891,-0.125 11.917,-0.182c5.025,-0.057 11.018,-0.159 17.704,-0.068c3.54,0.075 7.051,0.653 10.427,1.717c3.646,1.091 7.099,2.744 10.234,4.9c3.159,2.115 5.994,4.677 8.415,7.608c2.216,2.753 4.077,5.775 5.538,8.994c0.329,0.773 0.602,1.569 0.909,2.331c0.137,0.387 0.285,0.762 0.432,1.137c0.148,0.376 0.216,0.774 0.33,1.137c0.216,0.774 0.421,1.524 0.626,2.275c0.204,0.75 0.284,1.512 0.42,2.274c0.512,2.945 0.785,5.685 1.137,8.164c0.649,4.992 1.137,9.04 1.49,11.837c0.159,1.399 0.284,2.491 0.352,3.23c0.074,0.409 0.086,0.827 0.035,1.239z"/>
  <path id="svg_73" fill="#EE4248" d="m11.1549,193.353c0,0 -1.84209,5.152 1.6829,8.881l7.3343,0c0,0 -0.6481,-8.323 -9.0172,-8.881z"/>
  <path id="svg_74" fill="black" d="m11.1549,193.353c0,0 -1.84209,5.152 1.6829,8.881l7.3343,0c0,0 -0.6481,-8.323 -9.0172,-8.881z" opacity="0.4"/>
  <path id="svg_75" fill="#EE4248" d="m23.6517,182.744c-0.307,-0.364 -6.5838,9.461 -3.0588,19.49l6.9136,0c0,0 2.7063,-11.667 -3.8548,-19.49z"/>
  <path id="svg_76" fill="#EE4248" d="m35.8983,193.353c-2.2601,0.152 -4.3796,1.151 -5.9353,2.797c-1.5557,1.647 -2.433,3.819 -2.4566,6.084l6.9023,0c0,0 3.0247,-4.253 1.4896,-8.881z"/>
  <path id="svg_77" fill="#455A64" d="m12.2692,201.848c-2.38437,1.711 -4.23371,4.065 -5.33282,6.786c-1.09911,2.722 -1.4028,5.7 -0.87573,8.587c1.77388,10.234 12.57635,14.646 12.57635,14.646l11.9737,0c0,0 12.1897,-5.378 11.8941,-16.442c-0.2957,-11.064 -7.5504,-13.418 -7.5504,-13.418l-22.6852,-0.159z"/>
  <path id="svg_78" fill="#263238" d="m42.4593,214.185c-0.2711,-0.457 -0.604,-0.874 -0.9892,-1.239c-0.5568,-0.445 -1.1964,-0.774 -1.8816,-0.969c-0.6851,-0.196 -1.4022,-0.253 -2.1097,-0.168c-2.1176,0.401 -4.1186,1.271 -5.856,2.547c-1.1037,0.705 -2.2727,1.303 -3.491,1.785c-1.3441,0.511 -2.7999,0.656 -4.2186,0.421c-2.9224,-0.501 -5.2534,-2.07 -7.4367,-3.116c-1.8576,-1.084 -3.9929,-1.598 -6.1403,-1.478c-1.43565,0.149 -2.76484,0.825 -3.7297,1.899c-0.32242,0.423 -0.597,0.881 -0.81872,1.364c0.0076,-0.143 0.03437,-0.284 0.0796,-0.42c0.11784,-0.409 0.30642,-0.794 0.55718,-1.138c0.95348,-1.196 2.33701,-1.971 3.85474,-2.16c2.2577,-0.198 4.5215,0.306 6.4815,1.444c2.2742,1.046 4.5484,2.559 7.2889,3.013c1.3214,0.227 2.6796,0.098 3.9343,-0.375c1.189,-0.463 2.3312,-1.038 3.4113,-1.717c1.8134,-1.287 3.899,-2.139 6.0949,-2.49c0.7575,-0.074 1.522,0.011 2.2446,0.25c0.7226,0.239 1.3873,0.626 1.9513,1.137c0.2934,0.288 0.5323,0.627 0.705,1.001c0.0569,0.261 0.091,0.398 0.0682,0.409z"/>
  <path id="svg_79" fill="#263238" d="m42.63,216.857c-0.2728,-0.449 -0.6014,-0.861 -0.9779,-1.228c-0.5484,-0.447 -1.1818,-0.779 -1.862,-0.974c-0.6802,-0.195 -1.393,-0.251 -2.0952,-0.163c-2.0943,0.403 -4.0719,1.269 -5.7878,2.536c-1.075,0.71 -2.2177,1.312 -3.4113,1.797c-1.3319,0.512 -2.7772,0.658 -4.1846,0.42c-2.8996,-0.5 -5.2079,-2.069 -7.3684,-3.115c-1.8291,-1.083 -3.9386,-1.597 -6.0607,-1.479c-1.42641,0.156 -2.74377,0.837 -3.69562,1.911c-0.31754,0.418 -0.58471,0.872 -0.79598,1.353c0,0 0,-0.148 0.06823,-0.421c0.12302,-0.387 0.30729,-0.752 0.54581,-1.08c0.93818,-1.193 2.305,-1.972 3.80926,-2.172c2.2197,-0.202 4.4475,0.287 6.3792,1.399c2.206,1.046 4.5484,2.558 7.2092,3.013c1.3065,0.227 2.65,0.097 3.8889,-0.375c1.1714,-0.462 2.2949,-1.037 3.3544,-1.717c1.7921,-1.288 3.8594,-2.14 6.0381,-2.491c0.7413,-0.066 1.4883,0.023 2.1932,0.262c0.705,0.239 1.3522,0.622 1.9003,1.126c0.2883,0.286 0.5232,0.621 0.6937,0.989c0.0753,0.127 0.1291,0.265 0.1592,0.409z"/>
  <path id="svg_80" fill="#263238" d="m11.5529,216.789c0,-0.068 0.3184,-0.273 0.7391,0.068c0.1272,0.11 0.218,0.256 0.2607,0.418c0.0426,0.163 0.035,0.334 -0.0219,0.492c-0.07,0.195 -0.2012,0.361 -0.3739,0.475c-0.1728,0.113 -0.3778,0.168 -0.5841,0.155c-0.2064,-0.013 -0.4031,-0.092 -0.5604,-0.226c-0.1574,-0.134 -0.267,-0.316 -0.3123,-0.518c-0.04,-0.156 -0.0368,-0.319 0.0093,-0.474c0.0461,-0.154 0.1333,-0.293 0.2522,-0.401c0.4094,-0.341 0.7619,-0.182 0.7391,-0.114c-0.0227,0.068 -0.2501,0.125 -0.4207,0.398c-0.0368,0.068 -0.0561,0.144 -0.0561,0.222c0,0.077 0.0193,0.153 0.0561,0.221c0.0333,0.08 0.0862,0.15 0.1538,0.204c0.0676,0.053 0.1477,0.089 0.2328,0.103c0.084,-0.003 0.1658,-0.027 0.2375,-0.071c0.0717,-0.044 0.1309,-0.105 0.1719,-0.179c0.038,-0.063 0.0582,-0.136 0.0582,-0.21c0,-0.074 -0.0202,-0.147 -0.0582,-0.21c-0.2502,-0.262 -0.5117,-0.273 -0.5231,-0.353z"/>
  <path id="svg_81" fill="#263238" d="m25.1186,212.468c0,-0.068 0.3184,-0.284 0.7505,0.068c0.1226,0.113 0.2095,0.259 0.2499,0.421c0.0404,0.162 0.0326,0.332 -0.0225,0.489c-0.0718,0.193 -0.2028,0.359 -0.3743,0.473c-0.1716,0.115 -0.3749,0.172 -0.5809,0.164c-0.2055,-0.02 -0.4,-0.102 -0.5567,-0.237c-0.1568,-0.134 -0.2681,-0.314 -0.3188,-0.514c-0.0413,-0.157 -0.0376,-0.322 0.0107,-0.477c0.0482,-0.155 0.1391,-0.293 0.2622,-0.398c0.4093,-0.341 0.7618,-0.182 0.7277,-0.114c-0.0341,0.068 -0.2502,0.125 -0.4207,0.398c-0.0341,0.069 -0.0518,0.145 -0.0518,0.222c0,0.077 0.0177,0.153 0.0518,0.221c0.0333,0.08 0.0862,0.15 0.1538,0.204c0.0676,0.053 0.1477,0.089 0.2328,0.104c0.0842,-0.002 0.1665,-0.027 0.2384,-0.07c0.0719,-0.044 0.1309,-0.107 0.171,-0.181c0.0393,-0.063 0.0601,-0.136 0.0601,-0.21c0,-0.074 -0.0208,-0.147 -0.0601,-0.21c-0.2502,-0.262 -0.5117,-0.273 -0.5231,-0.353z"/>
  <path id="svg_82" fill="#263238" d="m38.2748,216.982c0,-0.068 0.3184,-0.272 0.7505,0.069c0.1227,0.112 0.2095,0.259 0.25,0.42c0.0404,0.162 0.0325,0.332 -0.0226,0.489c-0.0717,0.194 -0.2027,0.359 -0.3743,0.474c-0.1715,0.114 -0.3748,0.171 -0.5808,0.163c-0.2041,-0.019 -0.3975,-0.1 -0.5541,-0.232c-0.1566,-0.132 -0.2688,-0.309 -0.3215,-0.507c-0.0408,-0.159 -0.037,-0.325 0.0112,-0.482c0.0482,-0.157 0.1388,-0.297 0.2617,-0.405c0.4094,-0.341 0.7619,-0.182 0.7278,-0.114c-0.0342,0.069 -0.2502,0.137 -0.4208,0.398c-0.0478,0.068 -0.0774,0.146 -0.0858,0.228c-0.0084,0.083 0.0047,0.165 0.0379,0.241c0.0332,0.076 0.0855,0.141 0.1517,0.191c0.0662,0.049 0.144,0.081 0.226,0.091c0.0842,-0.002 0.1665,-0.026 0.2383,-0.07c0.0719,-0.044 0.1309,-0.106 0.171,-0.18c0.0393,-0.063 0.0602,-0.136 0.0602,-0.211c0,-0.074 -0.0209,-0.147 -0.0602,-0.21c-0.1933,-0.25 -0.4434,-0.273 -0.4662,-0.353z"/>
  <path id="svg_83" fill="#455A64" d="m384.409,191.409l3.9,40.458l19.717,0l4.719,-40.458l-28.336,0z"/>
  <path id="svg_84" fill="#263238" d="m384.409,186.178c-1.214,1.516 -1.868,3.403 -1.854,5.345l32.044,0c0.156,-0.975 0.068,-1.973 -0.255,-2.905c-0.324,-0.933 -0.873,-1.771 -1.599,-2.44l-28.336,0z"/>
  <path id="svg_85" fill="#263238" d="m388.059,182.471l-1.08,4.003l24.186,0.182l-1.603,-4.23l-21.503,0.045z"/>
  <path id="svg_86" fill="#EE4248" d="m384.045,201.541c0,0.375 2.274,20.399 2.274,20.399l24.095,0l2.275,-20.365l-28.644,-0.034z"/>
 </g>
</svg>